<svg width="183" height="55" fill="none" xmlns="http://www.w3.org/2000/svg"><path fill-rule="evenodd" clip-rule="evenodd" d="M117.009 7.288a4.573 4.573 0 00-4.348-4.788 4.573 4.573 0 104.348 4.788zm-1.041 8.224h-7.036v30.015h7.036V15.512zm24.84 19.166v-1.226h7.036v1.226c0 6.61-5.385 11.789-12.26 11.789-6.874 0-12.26-5.178-12.26-11.789V5.313h7.037V15.63h15.515v6.566h-15.515v12.482c0 2.756 2.197 4.754 5.223 4.754s5.224-1.998 5.224-4.754zm11.986-3.094c0 9.04 5.842 14.881 14.885 14.881 8.206 0 14.884-6.676 14.884-14.88V15.511h-7.037v16.072c0 4.327-3.52 7.847-7.847 7.847-6.488 0-7.848-4.268-7.848-7.847V15.512h-7.037v16.072zM85.619 14.912c-8.741 0-15.855 6.137-15.855 15.852 0 9.982 6.963 15.61 15.151 15.383 4.921-.136 8.285-2.523 10.285-6.142l.012.012v5.628h6.26V30.764c0-9.246-6.45-15.852-15.853-15.852zm0 24.725c-4.928 0-8.938-3.442-8.938-9.02 0-5.549 4.008-9.022 8.938-9.022 4.928 0 8.939 4.047 8.939 9.021-.003 4.974-4.011 9.021-8.939 9.021z" fill="#3762EB"/><path fill-rule="evenodd" clip-rule="evenodd" d="M27.506 55h27.507V27.5C55.013 12.312 42.697 0 27.506 0S0 12.312 0 27.5 12.315 55 27.506 55z" fill="url(#paint0_linear)"/><path d="M27.506 55c15.191 0 27.507-12.312 27.507-27.5S42.697 0 27.506 0 0 12.312 0 27.5 12.315 55 27.506 55z" fill="url(#paint1_linear)"/><path d="M27.506 55c15.192 0 27.507-12.312 27.507-27.5S42.698 0 27.506 0v55z" fill="#fff" fill-opacity=".2"/><path opacity=".2" fill-rule="evenodd" clip-rule="evenodd" d="M27.506 13.75c-7.596 0-13.753 6.156-13.753 13.75s6.157 13.75 13.753 13.75v-27.5z" fill="#fff"/><path opacity=".193" fill-rule="evenodd" clip-rule="evenodd" d="M27.506 13.75c7.596 0 13.754 6.156 13.754 13.75s-6.158 13.75-13.754 13.75v-27.5z" fill="#fff"/><path opacity=".2" fill-rule="evenodd" clip-rule="evenodd" d="M27.506 13.75c7.596 0 13.754 6.156 13.754 13.75s-6.158 13.75-13.754 13.75v-27.5z" fill="#fff"/><defs><linearGradient id="paint0_linear" x1="55.213" y1="-.2" x2="11.094" y2="51.183" gradientUnits="userSpaceOnUse"><stop stop-color="#4DA5FF"/><stop offset="1" stop-color="#1F1BD5"/></linearGradient><linearGradient id="paint1_linear" x1="55.213" y1="-.2" x2="11.094" y2="51.183" gradientUnits="userSpaceOnUse"><stop stop-color="#4DA5FF"/><stop offset="1" stop-color="#1F1BD5"/></linearGradient></defs></svg>