<svg width="196" height="35" fill="none" xmlns="http://www.w3.org/2000/svg"><path d="M141.816 8.559h-6.298v2.34h3.263v13.67h-3.263V26.9h9.57v-2.33h-3.272V8.558zM139.396 0c-1.297 0-2.166.87-2.166 2.05 0 1.179.869 2.05 2.166 2.05 1.335 0 2.24-.871 2.24-2.05.009-1.18-.896-2.05-2.24-2.05zm-32.527 8.559h-6.297v2.34h3.263v13.67h-3.263v2.332h9.56v-2.332h-3.263V8.56zM104.445 0c-1.298 0-2.166.87-2.166 2.05 0 1.179.868 2.05 2.166 2.05 1.335 0 2.239-.871 2.239-2.05.01-1.18-.895-2.05-2.239-2.05zM84.637 24.463h-4.168V5.39H84.6c3.437 0 7.559 1.047 7.559 9.395-.009 7.944-3.948 9.677-7.522 9.677zm-.795-21.535h-6.517v23.98h6.919c5.173 0 11.279-2.05 11.279-12.113-.01-9.958-5.832-11.867-11.681-11.867zM60.532 20.26c0-4.557-3.4-6.123-7.303-7.205-4.735-1.32-6.252-2.366-6.252-4.416 0-2.401 2.24-3.554 4.99-3.554 2.094 0 4.196.66 5.969 2.156l1.883-1.945c-2.093-1.741-4.552-2.753-7.952-2.753-4.771 0-8.062 2.577-8.062 6.193 0 3.792 3.071 5.533 8.025 6.923 4.269 1.18 5.42 2.332 5.42 4.663 0 3.026-2.75 4.451-5.785 4.451s-5.174-1.012-6.91-2.578l-1.883 2.05c2.093 1.953 5.1 3.026 8.747 3.026 5.786.018 9.113-2.876 9.113-7.01zM31.787 5.532h7.522l.33-2.604H20.872v2.604h7.77V26.9h3.144V5.532zM8.473 24.393H3.144v-8.771h5.439c2.925 0 5.356.906 5.356 4.557-.01 3.554-3.044 4.214-5.466 4.214zM3.144 5.39h4.927c2.998 0 4.88 1.012 4.88 3.756 0 2.78-1.663 3.968-4.588 3.968H3.144V5.39zm8.363 8.806c2.386-.52 4.662-2.12 4.662-5.217 0-4.698-4.451-6.052-8.82-6.052H0v23.98h7.934c4.551 0 9.332-1.6 9.332-6.817-.01-4.082-2.97-5.437-5.758-5.894zm104.925.354c0-2.472 1.371-4.214 4.451-4.214 2.816 0 4.232 1.425 4.232 4.179 0 2.718-1.444 4.319-4.159 4.319-3.107-.009-4.524-1.777-4.524-4.284zm6.8 9.184h-3.436c-1.956 0-2.532-.695-2.532-1.566 0-.66.429-1.355.978-1.777.832.282 1.59.387 2.861.387 4.515 0 7.156-2.613 7.156-6.228 0-1.329-.374-2.507-1.042-3.484.192-.07.503-.14.988-.14h1.444V8.602h-1.444c-1.307 0-2.185.343-2.742.792-1.198-.757-2.733-1.206-4.552-1.206-4.488 0-7.596 2.648-7.596 6.37 0 2.366 1.015 3.967 3.181 5.049-1.371.87-2.093 2.05-2.093 3.202 0 1.848 1.481 3.484 4.808 3.484h3.4c2.422 0 4.268.87 4.268 2.613 0 1.979-1.846 3.026-6.005 3.026v2.366c5.786 0 9.076-1.98 9.076-5.568.01-2.868-2.888-4.997-6.718-4.997z" fill="#222"/><path d="M138.964 8.568h-3.446v2.305h3.446V8.568zm22.828 15.413a7.96 7.96 0 01-3.656.87c-2.605 0-3.656-1.081-3.656-3.096v-10.89h7.422l.393-2.296h-7.824V4.082l-3.035.352v4.143h-3.446v2.305h3.446v10.926c0 3.202 2.313 5.498 6.398 5.498 1.81 0 3.793-.483 5.137-1.32l-1.179-2.005zm17.331-1.513c-1.124 1.636-2.925 2.613-4.808 2.613-2.495 0-3.656-1.18-3.656-3.484 0-2.366 1.518-3.827 5.713-3.827h2.751v4.698zm3.08.414v-8.806c0-3.616-2.385-5.912-7.12-5.912-1.883 0-3.903.352-6.252 1.152l.832 2.226c1.956-.66 3.684-.941 4.954-.941 2.815 0 4.515.976 4.515 3.65v1.496h-2.824c-5.749 0-8.893 2.12-8.893 5.885 0 3.414 2.312 5.64 6.142 5.64 2.459 0 4.588-.872 5.968-2.578.503 1.671 1.847 2.401 3.474 2.613l.758-2.085c-1.087-.317-1.554-.88-1.554-2.34zm1.549-21.694v2.33h5.859v23.383H196v-2.33h-3.355V1.186h-8.893zM71.218 15.86c0 1.232-1.07 2.226-2.395 2.226s-2.394-1.003-2.394-2.225c0-1.232 1.07-2.226 2.394-2.226 1.326-.009 2.395.994 2.395 2.226z" fill="#222"/></svg>