<svg width="222" height="70" fill="none" xmlns="http://www.w3.org/2000/svg"><path fill-rule="evenodd" clip-rule="evenodd" d="M152.204 7.543c0-4.03 3.261-7.297 7.327-7.297h7.75v5.43h-7.75c-1.059 0-1.906.85-1.906 1.867v7.765h-5.421V7.543zm54.719-7.34h7.75C218.697.203 222 3.47 222 7.501v7.765h-5.421V7.543c0-1.06-.847-1.866-1.906-1.866h-7.75V.203zm-54.719 54.734h5.421v7.765c0 1.06.847 1.867 1.906 1.867h7.75v5.43h-7.75c-4.024 0-7.327-3.266-7.327-7.297v-7.765zm64.375 0H222v7.765c0 4.03-3.261 7.297-7.327 7.297h-7.75v-5.43h7.75c1.059 0 1.906-.849 1.906-1.867v-7.765z" fill="#0075EB"/><path d="M5.626 46.475c.335.043.755.043 1.3.086H9.11c3.736 0 6.548-.945 8.354-2.878 1.847-1.976 2.77-4.682 2.77-8.203 0-3.565-.882-6.271-2.687-8.204-1.847-1.847-4.617-2.792-8.395-2.792-1.637 0-2.855.043-3.526.13v21.86zM26.069 35.48c0 2.705-.42 5.068-1.26 7.086-.839 1.976-2.014 3.651-3.526 5.025-1.51 1.332-3.316 2.32-5.499 2.964-2.14.644-4.491.945-7.094.945-1.26 0-2.645-.043-4.198-.172A25.19 25.19 0 010 50.684V20.318a25.115 25.115 0 014.534-.644 80.284 80.284 0 014.24-.13c2.56 0 4.911.302 7.052.946 2.141.601 3.946 1.589 5.457 2.878 1.554 1.288 2.73 2.963 3.527 4.982.84 1.975 1.259 4.38 1.259 7.13zm11.247 15.178h-4.762v-23.43h4.8v23.43h-.038zm.524-30.277c0 1.02-.3 1.828-.862 2.424a2.767 2.767 0 01-2.062.893c-.825 0-1.5-.298-2.1-.893-.562-.596-.862-1.404-.862-2.424 0-1.063.3-1.871.862-2.466.563-.596 1.275-.893 2.1-.893.787 0 1.462.297 2.062.893.6.595.862 1.403.862 2.466zm10.704 18.194c0 2.267.518 3.947 1.511 4.997 1.036 1.05 2.331 1.553 3.972 1.553.863 0 1.683-.126 2.46-.336.777-.252 1.425-.503 1.9-.84V31.94a10.059 10.059 0 00-1.468-.21c-.561-.084-1.295-.126-2.202-.126-1.985 0-3.54.63-4.619 1.932-.993 1.26-1.554 2.94-1.554 5.039zM63.912 48.4c0 3.695-.95 6.382-2.935 8.104-1.9 1.721-4.878 2.561-8.85 2.561-1.468 0-2.892-.126-4.274-.336-1.38-.252-2.59-.545-3.712-.923l.993-4.535c.95.378 1.986.671 3.194.923 1.21.252 2.504.336 3.929.336 2.201 0 3.799-.462 4.748-1.343.95-.882 1.425-2.184 1.425-3.948v-.881c-.561.252-1.295.545-2.202.797-.863.252-1.9.378-3.065.378-1.51 0-2.935-.252-4.187-.713a9.19 9.19 0 01-3.238-2.058 10.468 10.468 0 01-2.115-3.401c-.475-1.386-.734-2.982-.734-4.787 0-1.68.26-3.233.777-4.661a10.537 10.537 0 012.331-3.611c1.036-1.008 2.288-1.764 3.713-2.352 1.468-.546 3.108-.84 4.964-.84 1.77 0 3.497.126 5.094.378a42.56 42.56 0 014.101.84V48.4h.043zm12.012 2.258H70.44v-23.43h5.484v23.43zm.6-30.277c0 1.02-.343 1.828-.985 2.424-.643.595-1.457.893-2.357.893-.943 0-1.714-.298-2.4-.893-.642-.596-.985-1.404-.985-2.424 0-1.063.343-1.871.985-2.466.643-.596 1.457-.893 2.4-.893.9 0 1.671.297 2.357.893.685.595.985 1.403.985 2.466zm5.883.902l5.6-.896v7.085h8.574v4.524h-8.574v9.56c0 1.878.306 3.244.919 4.055.612.81 1.662 1.195 3.15 1.195 1.006 0 1.924-.085 2.668-.299.787-.213 1.444-.384 1.881-.597l.919 4.31a19.41 19.41 0 01-2.537.811c-1.05.3-2.275.47-3.675.47-1.706 0-3.15-.214-4.331-.683-1.138-.47-2.056-1.11-2.713-1.92-.656-.854-1.137-1.921-1.443-3.116-.263-1.238-.394-2.604-.394-4.183V21.283h-.044zm27.306 25.974c1.614 0 2.856-.085 3.725-.255v-5.98a9.868 9.868 0 00-1.283-.254 11.902 11.902 0 00-1.821-.127c-.579 0-1.159.042-1.78.127a5.156 5.156 0 00-1.614.509 3.254 3.254 0 00-1.117 1.018c-.29.424-.456.933-.456 1.611 0 1.273.414 2.163 1.159 2.672.787.467 1.821.679 3.187.679zm-.455-20.146c1.738 0 3.228.212 4.428.679 1.201.466 2.152 1.06 2.856 1.866.745.806 1.242 1.781 1.531 2.926.332 1.145.497 2.376.497 3.733V50.48c-.828.17-2.069.382-3.725.636-1.614.255-3.476.382-5.546.382-1.366 0-2.607-.127-3.766-.382-1.117-.254-2.111-.678-2.939-1.314-.786-.594-1.407-1.358-1.862-2.333-.455-.933-.662-2.12-.662-3.52 0-1.357.248-2.46.745-3.393.538-.933 1.241-1.654 2.111-2.248a7.74 7.74 0 013.021-1.23 16.845 16.845 0 013.642-.382c.579 0 1.2.043 1.821.128.621.042 1.324.17 2.069.339v-.89a8.02 8.02 0 00-.207-1.782c-.165-.551-.413-1.06-.786-1.484-.331-.467-.828-.806-1.448-1.018-.58-.255-1.325-.34-2.235-.34-1.242 0-2.359.085-3.353.255-1.034.17-1.862.382-2.483.636l-.662-4.368c.662-.255 1.655-.467 2.938-.721a23.315 23.315 0 014.015-.34zm24.504 24.387c-1.658-.042-3.054-.213-4.145-.555-1.091-.341-1.92-.811-2.574-1.41-.655-.64-1.091-1.409-1.397-2.305-.261-.94-.349-1.965-.349-3.16V17.076l5.585-.897v26.948c0 .64.044 1.196.131 1.665.131.47.306.855.611 1.153.262.3.655.556 1.091.727.48.17 1.091.256 1.832.341l-.785 4.484z" fill="#29323C"/><path d="M169.028 20.387h5.887V50.66h-5.887V20.387zm18.419 26.094c.346.043.78.043 1.343.086h2.253c3.857 0 6.76-.943 8.623-2.874 1.907-1.973 2.86-4.675 2.86-8.192 0-3.56-.91-6.262-2.773-8.192-1.863-1.888-4.723-2.831-8.623-2.831-1.69 0-2.947.042-3.64.128v21.875h-.043zm21.103-10.98c0 2.702-.434 5.061-1.3 7.077-.867 1.973-2.08 3.646-3.64 5.019-1.56 1.33-3.424 2.316-5.677 2.96-2.21.643-4.636.943-7.323.943-1.3 0-2.73-.043-4.333-.172a26.808 26.808 0 01-4.637-.643V20.317a26.73 26.73 0 014.68-.643 85.649 85.649 0 014.377-.13c2.643 0 5.07.301 7.279.945 2.21.6 4.074 1.587 5.634 2.873 1.603 1.287 2.816 2.96 3.64 4.976.866 2.016 1.3 4.375 1.3 7.163z" fill="#0075EB"/></svg>