<svg width="265" height="51" fill="none" xmlns="http://www.w3.org/2000/svg"><path d="M103.173 10.842c-8.602 0-16.4 7.187-16.4 15.816 0 6.6 4.641 11.563 11.386 11.563 8.664 0 16.464-7.106 16.464-15.816 0-6.589-4.642-11.563-11.45-11.563zm-4.086 22.151c-3.897 0-6.624-3.045-6.624-7.07 0-5.33 4.72-9.822 9.719-9.822 3.965 0 6.624 3.045 6.624 7.106.063 5.37-4.642 9.786-9.719 9.786zm26.122-14.065c0-1.853 1.914-3.112 4.72-3.112 2.906 0 5.633 1.376 7.548 2.696l3.467-4.569a15.772 15.772 0 00-9.656-3.045c-6.436 0-11.885 3.776-11.885 9.344 0 8.03 13.495 5.274 13.495 9.645 0 1.918-1.982 3.355-5.245 3.355a14.172 14.172 0 01-8.544-3.046l-3.466 4.437c3.088 2.438 6.971 3.734 10.956 3.654 6.871 0 12.131-4.015 12.131-9.405-.031-8.213-13.521-5.817-13.521-9.954zM182.152 0L164.32 29.116 157.087 0h-7.306l-6.87 37.74h5.942l4.768-26.395 6.744 26.395h4.642l16.259-26.395-4.825 26.395h5.942L189.275 0h-7.123zm31.88 11.381l-.436 2.396a10.128 10.128 0 00-3.424-2.22 10.406 10.406 0 00-4.055-.714c-7.426 0-15.734 6.71-15.734 15.817 0 6.71 4.83 11.563 10.71 11.563a13.658 13.658 0 008.601-2.94l-.43 2.396h5.633l4.825-26.354h-5.69v.056zm-3.284 17.974a10.703 10.703 0 01-3.593 2.625c-1.376.62-2.872.95-4.389.969-3.902 0-6.687-3.117-6.687-7.188 0-5.335 4.83-9.705 9.718-9.705 3.84 0 5.817 2.03 6.688 3.655l-1.737 9.644zm27.988-18.513a10.96 10.96 0 00-7.06 2.538l.31-1.98h-5.633l-4.826 26.36h5.691l3.467-18.99a10.635 10.635 0 016.75-2.537c.921.034 1.835.175 2.722.42l2.229-5.075a9.102 9.102 0 00-3.65-.736zm16.684 5.753h8.203l.992-5.213h-8.182l1.238-7.005h-5.633l-1.301 7.005h-5.88l-.975 5.213h5.926l-2.166 11.74c-1.112 6.05 2.046 9.95 8.481 9.95a20.932 20.932 0 006.934-1.26l-.745-4.974a15.14 15.14 0 01-4.72.898c-3.467 0-4.768-1.974-4.196-5.075l2.024-11.28zM67.955 0H56.122L54.14 11.025h5.942l.992-5.513h6.188c6.562 0 10.831 4.569 10.831 10.965 0 8.801-7.3 15.735-15.735 15.735H41.584L47.526 0H26.421l-.991 5.512h15.09L34.576 37.74h26.628c12.257 0 23.03-9.761 23.03-21.984C84.109 6.649 77.673 0 67.955 0zM19.684 10.08l-.991 3.553H0l.991-3.553h18.693zm4.872 8.104l-.986 3.593H4.935l.928-3.593h18.693zm4.91 8.129l-.929 3.593H9.845l.986-3.593h18.635zm35.88 23.433c1.904-1.624 2.255-4.248.787-5.858-1.469-1.608-4.196-1.598-6.11 0-1.915 1.6-2.25 4.285-.756 5.899 1.495 1.614 4.196 1.594 6.08-.04zm-20.588.029c1.898-1.63 2.25-4.249.781-5.863-1.468-1.614-4.196-1.599-6.105.03-1.909 1.63-2.255 4.25-.781 5.858 1.474 1.61 4.2 1.6 6.105-.025z" fill="#4CBE42"/></svg>