<svg width="423" height="536" fill="none" xmlns="http://www.w3.org/2000/svg"><path fill-rule="evenodd" clip-rule="evenodd" d="M356.96 205.898L180.026 0l-6.938.935-46.663 98.621-85.741-52.49-6.304 4.198L62.707 234.22 0 366.748l3.32 5.935 61.937 6.75.905-8.298-56.11-6.115 54.932-116.096 9.529 61.543.238.884 52.16 133.079 2.372 2.366 217.516 84.683 5.687-3.817 5.482-318.972-1.008-2.792zM69.072 220.769L44.007 58.887l78.827 48.258-53.763 113.624zm60.922-109.24L71.348 235.474l9.147 59.075 78.067-165.531-28.568-17.489zm3.591-7.589l44.3-93.625 171.71 199.819-5.352 311.393-210.228-81.846-50.813-129.643 129.346-149.895-72.926 154.738 7.55 3.558 85.951-182.374-6.935-4.506L94.762 283.865l72.946-154.672-1.595-5.34-32.528-19.913z" fill="#F6F2F2"/><path fill-rule="evenodd" clip-rule="evenodd" d="M277.667 356.243l106.865 179.216 7.17-4.275-104.656-175.511 118.875-7.229 1.644-7.883-129.079-65.896 144.054-51.682-2.818-7.857-151.437 54.331-46.938-23.962-113.885-190.99-7.735 1.7-13.378 126.738 2.253 4.155 126.808 64.737 17.973 30.143L2.608 364.773l1.662 8.094 273.397-16.624zm-4.812-8.07L32.931 362.762l204.809-73.479 35.115 58.89zm-31.466-69.067l-12.008-20.138 28.122 14.357-16.114 5.781zm26.316-.573l-21.96 7.878 36.489 61.192 107.913-6.562-122.442-62.508zm-60.33-40.171L94.951 180.968l11.761-111.421 100.663 168.815z" fill="#F6F2F2"/><path fill-rule="evenodd" clip-rule="evenodd" d="M377.39 26.494l-4.882-6.512-237.045 105.594-28.037-70.353-7.755 3.09 28.161 70.663-104.487 46.545-.742 7.198 154.311 111.192 4.88-6.772-148.42-106.948 97.551-43.455 46.352 116.307 7.06 1.154L377.39 26.494zM138.556 133.336l220.633-98.283-176.728 208.45-43.905-110.167z" fill="#F6F2F2"/></svg>