<svg width="324" height="64" fill="none" xmlns="http://www.w3.org/2000/svg"><path d="M6.8 10.02c-5.646 0-8.827 6.492-5.357 10.958l31.406 40.398c2.718 3.496 8.005 3.496 10.722 0l31.407-40.398c3.469-4.457.288-10.959-5.357-10.959H6.799z" fill="#FFCD00"/><path d="M6.406 27.356C10.094 13.348 22.914 2.992 38.215 2.992c15.292 0 28.112 10.356 31.808 24.364l2.264-2.91C67.55 10.272 54.084.004 38.215.004c-15.87 0-29.336 10.268-34.072 24.442l2.263 2.91z" fill="#1D1D1B"/><path d="M32.85 61.366c2.717 3.495 8.004 3.495 10.721 0l26.443-34.01C66.327 13.346 53.507 2.991 38.206 2.991c-15.293 0-28.112 10.355-31.809 24.363l26.452 34.01z" fill="#FFED00"/><path d="M48.867 28.352v4.893h-7.76v16.962h-5.794V33.245h-7.76v-4.893h21.314zm0-7.36H27.544v4.894h21.323v-4.894z" fill="#1D1D1B"/><path d="M9.56 31.41C11.624 17.56 23.666 6.881 38.215 6.881c14.55 0 26.592 10.679 28.654 24.53l1.67-2.15C65.591 15.34 53.14 4.889 38.213 4.889 23.29 4.889 10.837 15.34 7.892 29.26l1.669 2.15zm80.964-9.417c.149-.149.358-.227.612-.227h2.517c.262 0 .463.078.611.227.149.148.228.358.228.612v11.447l4.832-5.977c.245-.315.577-.472 1.005-.472h3.128c.245 0 .42.044.542.14a.448.448 0 01.183.367c0 .148-.087.323-.253.533l-5.278 6.117 5.61 7.096c.149.21.219.384.219.533a.434.434 0 01-.193.367c-.131.096-.306.14-.533.14h-3.102c-.428 0-.778-.167-1.03-.507l-3.636-4.527-1.512 1.73v2.456c0 .262-.07.463-.227.612-.149.148-.35.227-.612.227h-2.517c-.262 0-.463-.07-.611-.227-.149-.149-.219-.35-.219-.612V22.613c.009-.27.088-.472.236-.62zm28.461 20.667c-.149-.148-.227-.349-.227-.611v-.699c-.376.507-.997.944-1.87 1.31a7.015 7.015 0 01-2.797.56c-1.564 0-2.936-.35-4.107-1.049a6.83 6.83 0 01-2.683-2.918c-.611-1.215-.926-2.56-.926-4.046 0-1.512.315-2.867.935-4.081a7.158 7.158 0 012.665-2.875c1.154-.708 2.526-1.058 4.107-1.058 1.023 0 1.949.175 2.762.533.821.35 1.45.822 1.896 1.399v-.752c0-.262.07-.463.227-.612.149-.148.35-.227.612-.227h2.456c.262 0 .463.079.611.227.149.149.227.35.227.612v13.685c0 .262-.069.463-.227.611-.148.149-.349.228-.611.228h-2.456c-.245-.018-.446-.088-.594-.236zm-1.224-10.617c-.769-.804-1.791-1.197-3.058-1.197-1.285 0-2.307.402-3.076 1.197-.76.804-1.145 1.853-1.145 3.155 0 1.267.393 2.307 1.171 3.11.778.814 1.8 1.216 3.041 1.216 1.302 0 2.333-.385 3.085-1.163.751-.769 1.127-1.826 1.127-3.172.018-1.293-.367-2.342-1.145-3.146zm9.072 9.297c-.245-.167-.367-.376-.367-.612 0-.184.07-.376.201-.56l1.197-1.59c.183-.245.402-.367.647-.367.183 0 .349.044.506.14.673.376 1.381.673 2.141.891a7.479 7.479 0 002.168.332c.629 0 1.162-.13 1.581-.393.42-.262.629-.586.629-.979 0-.35-.192-.611-.585-.786-.393-.166-.891-.297-1.512-.393l-.865-.114c-1.284-.201-2.298-.446-3.041-.725a5.72 5.72 0 01-2.036-1.337c-.673-.673-1.005-1.59-1.005-2.762 0-1.747.629-2.997 1.888-3.74 1.258-.743 2.743-1.118 4.456-1.118 1.075 0 2.08.14 3.006.419.918.28 1.818.708 2.692 1.285.262.148.393.35.393.611 0 .166-.07.359-.227.56l-1.171 1.564c-.184.244-.402.358-.647.358-.183 0-.358-.044-.533-.14-1.284-.69-2.499-1.03-3.661-1.03-.507 0-.962.104-1.381.322-.419.219-.629.49-.629.822 0 .41.253.708.769.891.515.184 1.223.341 2.141.472 1.485.262 2.595.516 3.312.769a4.803 4.803 0 011.913 1.267c.595.69.892 1.626.892 2.823 0 1.599-.551 2.831-1.643 3.696-1.101.865-2.657 1.302-4.666 1.302-2.508.026-4.684-.611-6.563-1.879zm15.974 0c-.244-.167-.367-.376-.367-.612 0-.184.07-.376.201-.56l1.198-1.59c.183-.245.402-.367.646-.367.184 0 .35.044.507.14.673.376 1.381.673 2.141.891a7.477 7.477 0 002.167.332c.629 0 1.162-.13 1.582-.393.419-.262.629-.586.629-.979 0-.35-.192-.611-.585-.786-.394-.166-.892-.297-1.512-.393l-.865-.114c-1.285-.201-2.299-.446-3.041-.725a5.711 5.711 0 01-2.036-1.337c-.673-.673-1.005-1.59-1.005-2.762 0-1.747.629-2.997 1.887-3.74 1.259-.743 2.744-1.118 4.457-1.118 1.075 0 2.08.14 3.006.419.917.28 1.818.708 2.691 1.285.263.148.394.35.394.611 0 .166-.07.359-.228.56l-1.171 1.564c-.183.244-.401.358-.646.358-.184 0-.358-.044-.533-.14-1.285-.69-2.5-1.03-3.662-1.03a2.92 2.92 0 00-1.38.322c-.42.219-.63.49-.63.822 0 .41.254.708.769.891.516.184 1.224.341 2.141.472 1.486.262 2.596.516 3.312.769a4.8 4.8 0 011.914 1.267c.594.69.891 1.626.891 2.823 0 1.599-.55 2.831-1.642 3.696-1.102.865-2.657 1.302-4.667 1.302-2.508.026-4.684-.611-6.563-1.879zm28.033 1.32c-.148-.148-.227-.349-.227-.611v-.699c-.376.507-.996.944-1.87 1.31a7.013 7.013 0 01-2.796.56c-1.565 0-2.937-.35-4.107-1.049a6.823 6.823 0 01-2.683-2.918c-.612-1.215-.927-2.56-.927-4.046 0-1.512.315-2.867.936-4.081a7.151 7.151 0 012.665-2.875c1.153-.708 2.525-1.058 4.107-1.058 1.022 0 1.949.175 2.761.533.822.35 1.451.822 1.897 1.399v-.752c0-.262.069-.463.227-.612.148-.148.349-.227.611-.227h2.456c.262 0 .463.079.612.227.148.149.227.35.227.612v13.685c0 .262-.07.463-.227.611-.149.149-.35.228-.612.228h-2.456c-.244-.018-.445-.088-.594-.236zm-1.214-10.617c-.769-.804-1.792-1.197-3.059-1.197-1.284 0-2.307.402-3.076 1.197-.76.804-1.145 1.853-1.145 3.155 0 1.267.394 2.307 1.171 3.11.778.814 1.8 1.216 3.041 1.216 1.302 0 2.334-.385 3.085-1.163.752-.769 1.127-1.826 1.127-3.172.018-1.293-.375-2.342-1.144-3.146zm16.952-.559a.49.49 0 01.131.359V33.1a.49.49 0 01-.131.358.488.488 0 01-.358.131h-7.655a.487.487 0 01-.358-.13.487.487 0 01-.132-.359v-1.547c0-.236.088-.437.28-.585l1.582-1.285 2.49-2c.621-.49 1.031-.91 1.25-1.25.21-.35.315-.735.315-1.172 0-.498-.167-.873-.499-1.136-.332-.262-.751-.384-1.258-.384-.778 0-1.363.48-1.739 1.433-.096.236-.245.358-.437.358a.755.755 0 01-.183-.035l-1.547-.375c-.254-.062-.376-.201-.376-.411a.38.38 0 01.035-.192c.192-.48.463-.927.804-1.355.341-.428.76-.795 1.258-1.1.63-.377 1.355-.569 2.185-.569.909 0 1.695.175 2.359.533.665.35 1.163.83 1.495 1.424.323.569.489 1.172.489 1.81 0 .75-.218 1.459-.664 2.14-.437.682-1.092 1.381-1.957 2.107l-.665.541-.716.55c-.332.28-.664.543-.979.77h4.623a.41.41 0 01.358.113zm11.806-2.579c.088.088.131.21.131.358v1.25a.486.486 0 01-.131.358.488.488 0 01-.358.132h-.996v2.088a.49.49 0 01-.131.358.49.49 0 01-.359.132h-1.599a.488.488 0 01-.358-.132.49.49 0 01-.131-.358v-2.088h-5.322a.487.487 0 01-.358-.131.486.486 0 01-.131-.359v-1.25a.94.94 0 01.227-.603l5.977-6.728a.74.74 0 01.603-.28h1.092a.49.49 0 01.359.131.49.49 0 01.131.358v6.625h.996a.532.532 0 01.358.14zm-6.379-.13h2.456V25.89l-2.456 2.883zm26.583.874c1.32 1.39 1.984 3.233 1.984 5.566 0 2.325-.664 4.177-1.984 5.55-1.32 1.371-2.928 2.07-4.798 2.07-2.08 0-3.784-.952-5.102-2.866l-.272 2.001c-.096.358-.27.533-.532.533h-2.57c-.35 0-.532-.175-.532-.533V22.806c0-.35.174-.533.532-.533h2.902c.35 0 .532.175.532.533v7.384c1.468-1.73 3.198-2.595 5.182-2.595 1.774-.009 3.338.682 4.658 2.054zm-3.146 8.747c.752-.76 1.128-1.826 1.128-3.18 0-1.347-.384-2.404-1.128-3.173-.752-.76-1.686-1.145-2.804-1.145-1.128 0-2.098.394-2.868 1.171-.776.778-1.17 1.853-1.17 3.225s.384 2.438 1.154 3.154c.778.717 1.712 1.084 2.83 1.084 1.154.009 2.106-.376 2.858-1.136zm21.654-10.441c.35 0 .534.175.534.533v13.475c0 .358-.176.533-.534.533h-2.814c-.296 0-.472-.175-.532-.533l-.192-1.416c-1.372 1.52-3.076 2.281-5.078 2.281-3.496 0-5.374-2.447-5.374-6.965V28.48c0-.35.174-.533.534-.533h3.032c.358 0 .532.175.532.533v7.385c0 2.08 1.092 3.303 2.954 3.303 1.922 0 3.25-1.346 3.374-4.178v-6.518c0-.35.174-.534.532-.534h3.032v.018zm5.846 14.197c-1.03-.393-1.852-.882-2.438-1.494-.244-.245-.262-.49-.052-.752l1.022-1.642c.176-.297.446-.341.786-.105.472.42 1.102.76 1.862 1.022.76.263 1.512.394 2.254.394 1.522 0 2.394-.56 2.394-1.539 0-.664-.654-1.1-1.24-1.25a25.12 25.12 0 00-1.468-.296c-1.766-.315-3.128-.804-4.064-1.468-.934-.664-1.416-1.643-1.416-2.936 0-1.399.534-2.49 1.582-3.277 1.05-.787 2.464-1.18 4.274-1.18 1.974 0 3.696.533 5.182 1.59.296.175.34.437.114.752l-1.032 1.59c-.174.262-.436.315-.752.166a5.773 5.773 0 00-3.32-.996c-1.582 0-2.368.437-2.368 1.302 0 .594.638.996 1.266 1.154.316.078.752.174 1.338.288.122.009.228.044.298.07 1.764.367 3.084.874 3.966 1.512.882.637 1.32 1.616 1.32 2.91 0 1.424-.534 2.586-1.574 3.469-1.056.883-2.542 1.32-4.464 1.32-1.276-.018-2.438-.21-3.47-.604zm14.244-16.621a2.212 2.212 0 01-1.668-.708 2.273 2.273 0 01-.69-1.669 2.3 2.3 0 01.69-1.669 2.256 2.256 0 011.668-.708c.638 0 1.198.227 1.67.708.462.472.69 1.032.69 1.67 0 .655-.228 1.205-.69 1.668-.472.472-1.032.708-1.67.708zm-1.538 16.962c-.348 0-.532-.175-.532-.533V28.485c0-.35.174-.533.532-.533h3.032c.35 0 .534.174.534.533V41.96c0 .358-.174.533-.534.533h-3.032zm20.344-13.073c1.022 1.207 1.538 2.928 1.538 5.13v7.41c0 .359-.174.534-.534.534h-3.032c-.358 0-.532-.175-.532-.533v-7.41c0-2.08-1.058-3.278-2.928-3.278-2.01 0-3.374 1.32-3.478 4.151v6.545c0 .358-.174.533-.532.533h-3.034c-.348 0-.532-.175-.532-.533V28.494c0-.35.174-.533.532-.533h2.84c.262 0 .438.175.534.533l.166 1.39c1.32-1.512 2.936-2.255 4.858-2.255 1.73-.017 3.102.577 4.134 1.792zm16.446.262c1.328 1.398 2.002 3.225 2.002 5.48 0 .253-.018.463-.028.611-.052.341-.244.507-.584.507h-10.076c.366 2.324 1.792 3.478 4.282 3.478 1.59 0 2.9-.63 3.906-1.861.262-.263.516-.271.752-.027l1.292 1.25c.246.288.22.568-.078.874-1.564 1.879-3.618 2.814-6.186 2.814-2.282 0-4.134-.708-5.568-2.106-1.424-1.398-2.15-3.207-2.15-5.41 0-2.158.666-3.984 2.002-5.47 1.328-1.485 3.102-2.228 5.286-2.228 2.09-.009 3.802.681 5.148 2.088zm-8.748 4.116h7.262c-.254-2.08-1.564-3.198-3.538-3.198-2.01 0-3.436 1.145-3.724 3.198zm15.136 8.354c-1.032-.393-1.852-.882-2.438-1.494-.246-.245-.262-.49-.052-.752l1.022-1.642c.174-.297.446-.341.786-.105.472.42 1.102.76 1.862 1.022.76.263 1.512.394 2.254.394 1.52 0 2.394-.56 2.394-1.539 0-.664-.656-1.1-1.24-1.25-.29-.07-.778-.174-1.468-.296-1.766-.315-3.13-.804-4.064-1.468-.936-.664-1.416-1.643-1.416-2.936 0-1.399.534-2.49 1.582-3.277 1.048-.787 2.464-1.18 4.274-1.18 1.974 0 3.696.533 5.182 1.59.296.175.34.437.112.752l-1.03 1.59c-.176.262-.438.315-.752.166a5.777 5.777 0 00-3.32-.996c-1.582 0-2.368.437-2.368 1.302 0 .594.638.996 1.266 1.154.314.078.752.174 1.338.288.122.009.226.044.296.07 1.766.367 3.086.874 3.968 1.512.882.637 1.32 1.616 1.32 2.91 0 1.424-.534 2.586-1.574 3.469-1.058.883-2.542 1.32-4.466 1.32-1.276-.018-2.428-.21-3.468-.604zm13.78 0c-1.03-.393-1.852-.882-2.438-1.494-.244-.245-.262-.49-.052-.752l1.022-1.642c.176-.297.446-.341.786-.105.472.42 1.102.76 1.862 1.022.76.263 1.512.394 2.254.394 1.522 0 2.396-.56 2.396-1.539 0-.664-.656-1.1-1.242-1.25a25.12 25.12 0 00-1.468-.296c-1.766-.315-3.128-.804-4.064-1.468-.934-.664-1.416-1.643-1.416-2.936 0-1.399.534-2.49 1.582-3.277 1.05-.787 2.464-1.18 4.274-1.18 1.974 0 3.696.533 5.182 1.59.296.175.34.437.114.752l-1.032 1.59c-.174.262-.436.315-.752.166a5.773 5.773 0 00-3.32-.996c-1.582 0-2.368.437-2.368 1.302 0 .594.638.996 1.268 1.154.314.078.75.174 1.336.288.122.009.228.044.298.07 1.764.367 3.084.874 3.966 1.512.884.637 1.32 1.616 1.32 2.91 0 1.424-.534 2.586-1.572 3.469-1.058.883-2.544 1.32-4.466 1.32-1.276-.018-2.438-.21-3.47-.604z" fill="#1D1D1B"/></svg>