<svg width="199" height="56" fill="none" xmlns="http://www.w3.org/2000/svg" class="c0160"><path d="M10.138 28.11a17.64 17.64 0 015.196-12.55 17.698 17.698 0 012.012-1.732 17.608 17.608 0 0110.535-3.466 2.535 2.535 0 110 5.07c-2.732 0-5.332.855-7.524 2.475-.506.373-.989.79-1.437 1.237a12.598 12.598 0 00-3.71 8.964l-2.537.001h-2.535zm0 0c0 1.71.242 3.399.718 5.017 2.207 7.495 9.206 12.731 17.024 12.731 4.74 0 9.197-1.846 12.545-5.199a2.536 2.536 0 00-3.586-3.584 12.589 12.589 0 01-8.961 3.713c-5.585 0-10.586-3.739-12.161-9.092a12.69 12.69 0 01-.513-3.584l-2.533-.001-2.533-.001z" fill="url(#paint0_linear)"/><path opacity=".988" d="M53.228 56a2.529 2.529 0 01-1.792-.743l-7.423-7.426a2.537 2.537 0 01-.019-3.567c10.685-10.908 7.454-24.154-.069-31.845-7.528-7.696-20.723-11.198-31.908-.703a2.532 2.532 0 01-3.582-.114 2.536 2.536 0 01.114-3.584C22.222-4.81 38.35-.53 47.55 8.873c8.773 8.967 12.764 24.12 1.76 37.084l5.712 5.714A2.537 2.537 0 0153.228 56z" fill="url(#paint1_linear)"/><path d="M53.228 56H27.882C16.88 56 6.879 49.502 2.402 39.447a2.535 2.535 0 114.631-2.063A22.843 22.843 0 0027.882 50.93h25.346a2.535 2.535 0 110 5.071z" fill="url(#paint2_linear)"/><path d="M12.523 30.645H2.535A2.535 2.535 0 010 28.11c0-7.45 2.9-14.453 8.168-19.72a15.7 15.7 0 01.37-.361 2.534 2.534 0 113.492 3.675l-.276.27c-3.705 3.706-5.98 8.464-6.544 13.6h7.315a2.535 2.535 0 11-.002 5.071z" fill="url(#paint3_linear)"/><path d="M43.152 30.657H12.458a2.546 2.546 0 110-5.093h27.889a12.793 12.793 0 00-4.911-7.696 12.618 12.618 0 00-7.556-2.486 2.546 2.546 0 110-5.092c3.843 0 7.502 1.204 10.582 3.483a17.894 17.894 0 017.236 14.336 2.547 2.547 0 01-2.546 2.547z" fill="#FF6700"/><g clip-path="url(#clip0)"><path d="M102.933 29.353c-.042-2.926 1.017-5.447 3.175-7.564 2.178-2.116 4.751-3.143 7.719-3.081 2.967-.062 5.54.965 7.719 3.081 2.199 2.117 3.278 4.638 3.237 7.564.041 2.925-1.038 5.447-3.237 7.563-2.179 2.117-4.752 3.144-7.719 3.081-2.968.063-5.541-.965-7.719-3.081-2.158-2.116-3.217-4.638-3.175-7.563zm17.523 0c0-1.95-.633-3.559-1.898-4.825-1.245-1.286-2.812-1.93-4.7-1.93-1.909 0-3.486.633-4.731 1.9-1.245 1.265-1.868 2.883-1.868 4.855 0 1.97.623 3.59 1.868 4.855 1.245 1.266 2.822 1.899 4.731 1.899 1.888 0 3.455-.633 4.7-1.899 1.265-1.266 1.898-2.884 1.898-4.855zm16.53 6.754v3.517a11.92 11.92 0 01-2.895.373c-1.971 0-3.496-.487-4.575-1.462-1.058-.976-1.588-2.418-1.588-4.327v-6.443h-2.427v-3.548h2.427v-3.89h4.202v3.89h4.358v3.548h-4.358v6.07c0 .871.218 1.494.654 1.867.456.353 1.193.53 2.21.53.353 0 1.017-.042 1.992-.125zm2.078 3.517V24.217h4.202v15.407h-4.202zm-.592-21.01c0-.747.26-1.369.779-1.867.518-.498 1.151-.747 1.898-.747.747 0 1.38.249 1.899.747.539.498.809 1.12.809 1.867 0 .727-.27 1.339-.809 1.837-.519.498-1.152.747-1.899.747-.747 0-1.38-.25-1.898-.747a2.446 2.446 0 01-.779-1.837zm22.14 11.455v9.555h-4.171v-8.995c0-.893-.27-1.608-.809-2.148-.519-.56-1.204-.84-2.054-.84-.851 0-1.557.28-2.117.84-.539.54-.809 1.255-.809 2.148v8.995h-4.202V24.217h3.859v1.4c1.162-1.161 2.667-1.742 4.514-1.742 1.784 0 3.195.56 4.233 1.68 1.037 1.12 1.556 2.625 1.556 4.514zm3.072 9.555V24.217h4.202v15.407h-4.202zm-.591-21.01c0-.747.259-1.369.778-1.867S165.023 16 165.77 16c.747 0 1.379.249 1.898.747.54.498.809 1.12.809 1.867a2.4 2.4 0 01-.809 1.837c-.519.498-1.151.747-1.898.747-.747 0-1.38-.25-1.899-.747a2.445 2.445 0 01-.778-1.837zm6.577 18.396l2.116-2.553c1.328 1.39 2.77 2.085 4.327 2.085.581 0 1.047-.103 1.4-.31.374-.229.56-.55.56-.966 0-.31-.114-.55-.342-.715-.207-.187-.623-.416-1.245-.685l-1.65-.685c-1.473-.602-2.541-1.255-3.205-1.96-.664-.727-.996-1.64-.996-2.74 0-1.432.518-2.552 1.556-3.361 1.037-.83 2.407-1.245 4.108-1.245 2.283 0 4.129.767 5.54 2.303l-2.116 2.583c-1.037-.975-2.189-1.463-3.455-1.463-1.1 0-1.649.364-1.649 1.09 0 .29.114.529.342.716.228.186.654.404 1.276.653l1.494.623c1.536.622 2.635 1.286 3.299 1.992.685.705 1.027 1.608 1.027 2.708 0 1.535-.57 2.739-1.712 3.61-1.12.872-2.552 1.307-4.295 1.307-2.759 0-4.886-.996-6.38-2.988zm28.754-6.941v9.555h-4.171V30.66c0-.892-.27-1.608-.809-2.148-.519-.56-1.204-.84-2.055-.84-.85 0-1.556.28-2.116.84-.539.54-.809 1.256-.809 2.148v8.964h-4.202V16.28h4.202v9.244c1.099-1.1 2.511-1.65 4.233-1.65 1.743 0 3.133.571 4.17 1.713 1.038 1.12 1.557 2.614 1.557 4.482zM89.034 31.3h-10.8c.25.975.747 1.732 1.494 2.272.768.518 1.712.778 2.833.778 1.514 0 2.946-.519 4.295-1.556l1.743 2.863c-1.847 1.536-3.901 2.303-6.163 2.303-2.366.042-4.378-.726-6.038-2.303-1.64-1.598-2.438-3.517-2.397-5.758-.041-2.22.737-4.13 2.334-5.727 1.598-1.598 3.507-2.376 5.728-2.335 2.116 0 3.849.685 5.197 2.055 1.37 1.37 2.055 3.07 2.055 5.104 0 .747-.094 1.515-.28 2.303zm-10.8-2.957h7.003c-.02-.934-.352-1.681-.996-2.241-.622-.581-1.4-.872-2.334-.872-.892 0-1.67.28-2.334.84-.664.56-1.11 1.318-1.339 2.273z" fill="#000"/><path d="M93.205 30.59c0-.815.283-1.507.847-2.071.564-.564 1.266-.847 2.103-.847.815 0 1.495.283 2.039.847.564.564.847 1.256.847 2.07 0 .838-.27 1.538-.815 2.104-.544.544-1.234.815-2.07.815-.838 0-1.538-.271-2.104-.815-.564-.566-.847-1.266-.847-2.103z" fill="#FF6700"/></g><defs><linearGradient id="paint0_linear" x1="-3.08" y1="28" x2="28.147" y2="28.018" gradientUnits="userSpaceOnUse"><stop offset=".069" stop-color="#231EE5"/><stop offset=".521" stop-color="#CE2651"/><stop offset=".914" stop-color="#FF6700"/></linearGradient><linearGradient id="paint1_linear" x1="12.32" y1="7.7" x2="53.341" y2="53.899" gradientUnits="userSpaceOnUse"><stop stop-color="#4440DB"/><stop offset=".51" stop-color="#4440DB"/><stop offset="1" stop-color="#2A27AD"/></linearGradient><linearGradient id="paint2_linear" x1="15.26" y1="52.22" x2="-11.76" y2="17.36" gradientUnits="userSpaceOnUse"><stop stop-color="#4440DB"/><stop offset=".52" stop-color="#CE2651"/><stop offset="1" stop-color="#FF6700"/></linearGradient><linearGradient id="paint3_linear" x1="13.44" y1="9.24" x2="7.56" y2="26.46" gradientUnits="userSpaceOnUse"><stop stop-color="#4440DB"/><stop offset=".505" stop-color="#CE2651"/><stop offset=".967" stop-color="#FF6700"/></linearGradient><clipPath id="clip0"><path fill="#000" transform="translate(74 16)" d="M0 0h124.424v24H0z"/></clipPath></defs></svg>